<svg width="397" height="193" viewBox="0 0 397 193" fill="none" xmlns="http://www.w3.org/2000/svg">
<path d="M130.421 67.392L130.781 67.2183C130.916 67.7053 131.147 68.6343 131.335 69.0528C131.851 69.7911 133.169 70.4465 134.022 70.6972C134.198 71.3496 134.2 71.6623 134.168 72.3243C134.975 74.2081 136.515 73.6206 136.612 75.9794C135.402 75.5038 134.297 74.7967 133.358 73.8972C131.498 72.1301 130.501 69.9613 130.421 67.392Z" fill="#FEFEFE"/>
<path d="M135.651 58.6532C141.088 56.2951 145.748 58.3292 148.453 63.4598L148.716 63.9823C148.694 64.0654 148.673 64.1382 148.654 64.203C148.464 64.8513 148.384 64.6623 148.073 65.2176L147.627 65.5291C147.416 64.932 147.898 64.456 147.886 64.1815C147.843 63.2096 145.728 61.4179 144.943 60.9657L144.563 60.9881C144.38 61.6134 144.334 61.7325 144.37 62.3788L144.895 62.9354C145.379 62.5739 145.582 62.2226 145.983 62.2791C146.137 62.8106 146.197 62.8812 146.021 63.3739C145.333 63.7406 144.57 63.5594 143.756 63.575C145.069 65.5684 143.631 64.8063 143.906 66.2264L144.379 66.5682C140.329 71.7838 144.636 70.3219 145.693 71.825C146.01 72.9114 145.022 74.3231 144.226 75.2332L143.9 75.5907C141.736 76.4154 140.796 76.4089 138.53 76.4901L138.005 76.161C138.103 75.0099 139.747 73.9824 139.853 72.7977C139.752 72.6084 136.462 70.6615 135.94 70.3114C135.434 70.315 134.555 70.4395 134.018 70.5008C132.719 69.575 131.941 68.8468 131.602 67.4276L132.406 67.4803C132.669 67.4945 132.933 67.5051 133.215 67.5096C133.95 67.0565 133.962 66.7081 134.419 65.8592C135.573 65.1486 136.611 64.7695 136.948 63.5389C136.651 62.7547 136.613 62.9135 135.835 62.3241C136.585 62.0473 136.787 62.109 137.036 61.3788C136.896 60.8715 136.801 60.6609 136.853 60.1375L137.416 59.7059C138.64 60.91 137.504 60.9835 138.46 62.3973L138.833 62.4413C139.721 61.8117 141.181 60.918 140.854 59.7284C140.108 59.1028 139.033 59.1147 138 59.1971L136.995 59.2821C136.163 59.3965 135.49 59.838 134.899 59.5096L135.123 58.8954L135.651 58.6532ZM131.417 71.3475C131.896 72.2741 132.545 73.1243 133.358 73.8973C133.409 73.946 133.462 73.9933 133.514 74.0409C133.462 73.9934 133.409 73.9468 133.358 73.8983C132.545 73.1253 131.896 72.2751 131.417 71.3485V71.3475ZM131.264 68.8749C131.288 68.9409 131.313 69.0015 131.336 69.0536C131.851 69.7912 133.167 70.446 134.021 70.6971L134.021 70.6981C133.168 70.4473 131.85 69.7917 131.335 69.0536C131.311 69.0013 131.287 68.9403 131.263 68.8739L131.264 68.8749Z" fill="#FEFEFE"/>
<path d="M0.624023 0.270788C3.48773 -0.0461637 9.32024 -0.0543473 12.2588 0.0901244C23.3318 0.634874 41.4499 -1.80019 51.0547 3.67606C54.8817 5.83454 57.6819 9.43914 58.8271 13.6809C59.8916 17.6094 59.3291 21.8016 57.2656 25.3099C53.2869 31.9578 46.5398 33.5007 39.585 35.1927C54.0396 35.6598 68.0325 44.838 62.0801 60.7981C61.0873 63.0159 59.6709 65.0189 57.9102 66.6936C48.2649 75.878 32.0511 74.7415 19.8105 74.7015C13.2385 74.6797 6.55657 74.8131 0.000976562 74.6126C1.45777 73.4427 5.92963 71.2746 6.25098 69.9993C7.31198 65.7791 6.90112 55.8802 6.90137 51.68L6.89551 24.6194C6.89326 18.5835 7.06373 11.737 6.67773 5.68583C6.5116 3.08581 1.16225 2.34746 0.624023 0.270788ZM23.8018 72.4085C30.5069 72.3652 36.2401 72.979 41.4561 68.2893C45.923 63.1856 46.186 57.4115 45.8027 50.9182C44.975 36.8907 34.1017 37.3798 23.8047 37.1751L23.8018 72.4085ZM23.7744 34.8597C29.0237 34.9374 34.8191 35.1137 39.1016 31.6057C42.7947 27.363 42.9319 21.2322 42.5439 15.9241C41.5642 2.52486 34.5437 2.4244 23.8135 2.4329L23.7744 34.8597Z" fill="#FEFEFE"/>
<path d="M161.217 110.785C170.567 110.035 178.45 114.096 182.046 123.048C187.507 136.646 186.212 160.123 170.581 166.665C163.636 169.573 152.989 168.573 146.09 165.835C146.066 170.525 145.619 184.95 146.702 188.433C148.881 190.545 150.985 190.913 152.047 192.053L151.827 192.407C150.372 192.865 148.783 192.725 147.241 192.702C143.917 192.707 126.783 192.943 124.685 192.37L124.541 191.938C125.644 190.475 128.327 190.673 129.483 188.665C130.04 187.7 130.139 186.64 130.204 185.55C130.58 179.255 130.581 123.325 129.783 121.401C129.005 119.531 125.546 118.62 123.774 117.917C124.81 117.462 125.861 117.045 126.926 116.665C130.823 115.295 139.561 112.205 144.008 111.02C144.185 111.105 144.361 111.191 144.538 111.276C145.592 112.588 145.729 113.76 146.003 115.385C150.971 112.66 155.608 111.223 161.217 110.785ZM155.841 115.276C151.841 115.653 150.048 116.398 146.302 117.955C146.574 123.58 146.44 129.825 146.438 135.5L146.409 163.433C150.216 164.44 153.912 165.562 157.865 164.742C166.549 161.395 167.478 151.035 167.729 142.853C168.004 133.928 168.233 115.666 155.841 115.276Z" fill="#FEFEFE"/>
<path d="M267.911 87.7581C268.614 87.8781 268.564 87.8683 269.144 88.2883C269.566 89.3439 269.028 112.814 269.023 115.768C278.456 110.035 291.839 107.945 300.664 116.233C306.389 121.895 307.848 129.788 308.108 137.418C308.656 153.426 301.808 168.213 283.983 168.406C278.334 167.833 273.609 167.063 268.656 164.208C268.066 165.548 267.503 166.898 266.966 168.258C263.961 168.118 260.404 167.688 257.356 167.505C255.389 167.385 249.606 167.064 247.921 166.551L247.746 166.178C248.409 165.228 251.515 164.9 252.266 162.993C253.853 158.969 253.266 152.478 253.266 148.118L253.256 126.75L253.273 109.615C253.283 105.4 253.529 99.7402 252.661 95.7502C251.444 94.9653 248.176 93.9955 247.761 92.843C248.878 91.823 265.436 88.2356 267.911 87.7581ZM278.983 115.535C274.526 116.038 273.356 116.468 269.313 118.443L269.349 161.651C274.303 164.406 276.014 164.84 281.631 163.99C285.206 162.44 287.039 161.235 288.464 157.403C290.889 150.89 291.116 143.541 290.929 136.646C290.699 128.236 290.131 115.778 278.983 115.535Z" fill="#FEFEFE"/>
<path d="M93.8644 110.785C95.571 110.563 98.8008 110.716 100.501 111.026C115.806 113.806 116.52 124.348 116.487 137.26L116.417 152.253C116.38 160.873 116.648 160.98 124.844 162.035C120.829 167.483 114.409 169.578 107.846 167.438C104.237 166.26 102.444 163.088 101.034 159.771C94.5019 166.603 88.7282 170.655 78.7892 167.428C74.6172 166.073 72.3022 163.46 70.425 159.55C70.2098 158.93 70.0289 158.3 69.8849 157.66C66.2308 140.823 89.6513 137.923 100.765 135.838C100.781 132.728 100.776 129.62 100.75 126.51C100.689 122.848 100.571 117.596 97.7003 114.941C96.5738 113.896 93.7299 112.86 92.2716 113.153C85.2014 114.843 88.1518 124.328 84.339 128.941C82.1628 132.046 77.0207 132.128 74.299 129.808C70.8709 126.883 71.9206 120.966 74.713 117.968C79.6929 112.626 86.9154 111.245 93.8644 110.785ZM100.561 138.436C100.216 138.436 100.063 138.405 99.7306 138.478C94.805 139.495 89.4712 140.876 86.547 145.288C83.7452 149.518 83.9428 156.528 87.8136 160.005C92.9242 163.08 96.6964 160.236 100.779 157.216C100.777 155.079 100.991 139.546 100.561 138.436Z" fill="#FEFEFE"/>
<path d="M214.451 110.785C221.026 110.1 229.219 112.043 233.349 117.585C237.276 122.855 237.166 129.748 237.203 136.005C237.208 141.335 237.184 146.663 237.134 151.99C237.084 160.868 237.256 160.843 245.533 162.018C241.363 167.663 234.608 169.813 227.806 167.111C224.679 165.868 222.961 162.783 221.881 159.71C215.521 166.418 209.739 170.493 199.996 167.578C195.943 166.363 193.475 164.063 191.524 160.293C189.892 156.531 189.674 151.561 192.073 148.088C198.519 138.763 211.404 137.861 221.524 135.816C221.541 130.938 221.741 125.468 221.014 120.698C220.639 118.24 220.051 115.886 217.863 114.476C216.639 113.606 213.727 112.838 212.272 113.358C204.847 116.013 210.144 129.215 201.674 131.157C193.158 133.11 190.287 123.596 195.388 117.986C200.148 112.753 207.716 111.245 214.451 110.785ZM221.451 138.558C220.859 138.29 221.171 138.355 220.484 138.495C210.904 140.363 203.747 144.233 205.839 155.603C206.182 157.463 207.012 158.556 208.347 159.821C213.254 163.205 217.544 160.27 221.529 157.183C221.534 152.91 221.826 142.333 221.451 138.558Z" fill="#FEFEFE"/>
<path d="M96.5169 18.7882C103.629 17.9476 112.315 21.5557 116.371 27.5304C119.996 32.8695 121.417 40.0992 120.249 46.4229C109.285 46.6632 97.5484 46.4653 86.5217 46.4718C87.3417 63.9129 93.3678 74.0152 113.732 66.752C115.6 66.0853 117.632 62.3314 119.843 62.2764C120.245 63.7934 118.568 65.7594 117.646 66.9571C108.726 78.77 89.2423 79.2269 78.4231 70.0069C67.3258 60.5496 66.3908 39.0893 76.221 28.3731C81.9714 22.1047 88.2344 19.3437 96.5169 18.7882ZM97.6526 21.0743C96.8754 21.0406 95.6522 21.179 94.8499 21.252C86.4933 24.578 86.6638 36.4065 86.5305 44.13L97.929 44.0929L105.725 44.1329C105.992 37.2021 107.9 21.5198 97.6526 21.0743Z" fill="#FEFEFE"/>
<path d="M372.287 110.785C388.451 109.081 398.616 123.151 396.258 138.423C385.128 138.601 373.679 138.468 362.529 138.463C362.869 146.33 363.699 156.377 372.154 159.89C377.764 162.057 385.006 161.178 390.244 158.428C391.719 157.653 394.069 154.415 395.546 154.148L395.912 154.947C395.667 156.435 394.391 157.933 393.471 159.115C384.574 170.78 365.099 171.18 354.421 162.008C343.264 152.315 342.391 131.133 352.284 120.273C357.771 114.25 364.287 111.37 372.287 110.785ZM373.726 113.08C372.881 113.035 371.689 113.168 370.819 113.258C362.574 116.588 362.574 128.466 362.546 136.136C366.341 136.091 370.134 136.078 373.929 136.101L381.729 136.111C381.994 129.138 383.891 113.613 373.726 113.08Z" fill="#FEFEFE"/>
<path d="M36.3498 90.3029C46.4783 89.3979 53.1913 91.5404 62.2288 95.6479C62.2548 97.7104 62.8895 108.685 62.2798 109.685C59.9738 109.203 55.0935 98.3404 52.7393 96.1754C50.01 93.6004 45.7505 92.4129 42.024 92.5579C20.3458 93.6079 18.4628 117.353 19.0025 134.033C19.5325 150.408 24.6533 166.985 43.9915 166.365C48.3128 166.228 52.0293 165.06 55.0223 161.788C57.8328 157.998 60.3365 149.143 62.7313 146.845L63.1158 146.965C63.5655 148.33 63.148 160.953 63.1438 163.308C56.6788 166.043 52.5503 167.625 45.5083 168.413C22.2558 170.77 3.04952 158.7 0.753768 134.518C-1.48648 110.92 11.97 92.2829 36.3498 90.3029Z" fill="#FEFEFE"/>
<path d="M333.846 87.7629C335.714 88.2979 334.999 92.4904 334.946 94.1704C334.839 97.3379 334.754 100.508 334.691 103.675C334.561 111.135 334.076 159.283 335.291 162.423C336.099 164.508 339.366 165.513 341.264 166.408C338.454 166.845 333.619 166.725 330.644 166.723L313.991 166.695C313.371 166.668 313.556 166.735 313.066 166.423C313.401 165.75 315.956 164.28 316.834 163.32C319.346 160.573 318.531 156.728 318.529 153.108L318.519 137.65L318.511 111.663C318.511 107.54 318.564 103.29 318.514 99.1679C318.454 94.0504 315.134 95.0629 312.901 92.9854L312.979 92.6679C314.989 91.7054 331.234 88.0879 333.846 87.7629Z" fill="#FEFEFE"/>
</svg>
