<svg width="635" height="309" viewBox="0 0 635 309" fill="none" xmlns="http://www.w3.org/2000/svg">
<g clip-path="url(#clip0_8601_2)">
<path d="M35.8369 0.13916C51.8654 0.239917 72.1323 -2.0273 85.3184 8.52979C93.8698 15.376 97.1345 28.5415 91.9727 38.353C86.1849 49.7503 75.3085 51.8366 64.2676 55.4312C87.5755 57.2543 109.492 72.6104 98.1689 98.0513C84.6339 126.241 30.4677 116.929 4.60156 118.639C3.65063 118.701 1.74397 118.452 0.886719 118.094L0.828125 117.507C1.53503 116.644 2.91619 116.207 3.98633 115.73C6.13251 114.772 9.09971 113.04 9.90137 110.648C10.3361 109.35 10.5785 105.568 10.584 104.095C10.65 86.5861 10.5915 69.0272 10.6035 51.519L10.6201 25.4448C10.6216 20.3827 10.9409 13.5523 10.0615 8.58057C9.17769 3.5838 1.81355 3.10307 0.726562 1.02295C1.14537 0.258935 0.97676 0.50725 2.02734 0.121582C13.1694 -0.00453238 24.6982 0.0690967 35.8369 0.13916ZM72.917 90.3325C74.975 62.2504 62.3978 57.8054 37.5 58.6401C36.9324 68.9428 37.529 81.6076 37.3379 92.1685C37.2489 97.0955 37.0956 111.035 37.6055 115.023C48.2778 115.185 57.8338 115.942 66.1895 108.248C70.7967 102.829 72.4054 97.3158 72.917 90.3325ZM67.8594 27.9487C67.1472 4.0976 57.0065 3.45968 37.4453 3.67822C37.0221 18.2292 37.5367 32.9602 37.3516 47.5278C37.3203 49.9987 37.3807 52.4952 37.4785 54.9644C46.3501 55.0555 55.3936 55.9086 62.4424 49.5669C67.6028 43.6565 68.0829 35.4378 67.8594 27.9487Z" fill="#800C1E"/>
<path d="M255.937 179.563C271.625 178.547 284.453 182.926 291.036 198.516C299.844 219.378 297.31 255.336 273.532 265.502C261.675 270.571 245.126 268.952 233.307 264.287L233.275 286.788C233.27 290.941 233.198 294.907 233.503 299.054C233.993 305.71 240.301 304.923 242.575 307.722L242.344 308.229C240.874 308.903 238.845 308.716 237.18 308.703C232.073 308.686 202.561 309.244 199.481 308.249L199.438 307.535C200.345 306.378 203.585 305.3 205.035 304.286C209.343 301.27 208.066 292.659 208.044 287.539L207.999 267.515L208.004 221.552C207.999 215.042 207.921 207.602 208.033 201.143C208.197 191.692 201.578 194.324 199.254 191.079C201.435 189.069 226.011 180.968 230.147 179.535C232.235 182.332 232.474 184.094 233.393 187.455C241.376 182.605 246.71 180.943 255.937 179.563ZM268.165 225.085C268.3 209.368 267.746 184.149 245.522 186.183C240.813 187.343 238.004 188.62 233.733 191.041C233.675 213.885 233.441 237.477 233.723 260.296C240.487 262.542 248.788 264.567 255.562 261.351C267.467 253.83 268.056 237.815 268.165 225.085Z" fill="#800C1E"/>
<path d="M427.693 142.838C429.007 142.569 429.667 142.78 430.745 143.559C431.918 144.922 430.888 158.22 430.801 160.96C430.528 169.869 430.462 178.784 430.602 187.695C442.003 180.904 453.259 177.384 466.675 180.257C483.951 183.957 491.464 198.754 492.998 215.225C495.396 241.014 486.442 266.187 457.304 268.54C446.055 268.738 439.682 266.494 429.994 261.433L427.146 268.102C423.067 267.536 398.182 266.347 396.821 265.185L396.805 264.457C397.979 262.804 404.553 262.207 404.973 258.041C405.477 253.043 405.295 248.043 405.299 243.023L405.302 217.45V178.024C405.299 171.825 405.582 162.456 404.802 156.224C404.427 153.223 398.546 153.073 397.121 151.234L397.266 150.553C398.56 149.414 424.402 143.499 427.693 142.838ZM461.646 195.927C458.751 189.004 450.735 186.396 443.792 187.239C438.569 187.989 435.838 189.09 431.219 191.629L431.271 257.792C438.455 261.324 444.962 263.349 452.896 260.674C458.308 257.889 461.824 253.413 463.304 247.334C467.096 231.76 467.912 210.931 461.646 195.927Z" fill="#800C1E"/>
<path d="M344.549 179.283C354.584 179.278 365.479 180.971 372.489 188.881C380.04 197.4 379.313 209.678 379.303 220.31L379.226 241.138C379.213 244.017 378.986 248.496 379.436 251.239C380.9 260.196 388.811 256.161 391.756 258.252C391.989 258.973 392.046 259.122 391.625 259.82C386.39 268.507 373.203 270.663 364.426 266.862C358.85 264.446 356.595 259.755 354.711 254.693C351.519 258.349 344.179 264.996 339.647 266.688C327.225 271.322 310.737 267.796 305.494 254.536C303.561 249.017 303.727 241.771 307.265 236.991C317.536 223.114 338.403 221.085 354.111 218.347C354.007 209.284 356.075 192.363 349.198 185.302C347.351 183.51 343.066 182.462 340.647 182.872C325.757 185.399 337.816 209.327 320.474 211.084C306.771 212.472 305.403 196.992 313.221 189.29C321.068 181.557 334.017 179.609 344.549 179.283ZM353.5 221.976C345.35 223.07 336.985 225.029 331.723 231.875C327.027 237.983 326.871 248.927 332.316 254.577C340.59 260.663 347.247 256.086 354.131 250.744C354.06 244.374 354.047 238.003 354.087 231.633C354.094 229.652 354.244 224.013 354.02 222.26L353.5 221.976Z" fill="#800C1E"/>
<path d="M146.715 179.47C178.586 177.259 187.615 192.692 185.831 221.413C185.246 230.833 186.142 241.675 185.897 251.199C185.694 259.11 196.146 256.451 198.489 258.46C198.724 261.963 191.193 266.495 188.238 267.416C182.698 269.118 175.792 269.216 170.514 266.647C165.158 264.041 163.072 259.91 161.29 254.619C159.025 257.38 154.915 260.851 152.129 263.091C141.215 271.864 122.843 270.146 114.262 258.98C110.094 252.773 109.27 242.993 113.875 236.881C124.315 223.027 144.949 221.106 160.731 218.314C160.748 210.754 161.016 203.228 160.269 195.636C159.495 187.791 155.209 181.802 146.503 182.966C141.425 183.528 138.605 189.894 138.445 194.959C138.09 206.226 130.447 215.855 118.693 209.047C113.181 205.855 114.388 195.286 118.551 190.578C125.272 182.976 135.589 180.776 145.269 179.586C145.75 179.541 146.232 179.503 146.715 179.47ZM160.331 221.996C149.271 223.234 136.595 227.244 134.924 240.338C134.24 245.698 134.988 250.372 138.773 254.488C147.068 260.662 154.048 256.229 160.83 250.43C160.528 241.928 160.825 233.399 160.732 224.894C160.722 223.998 160.709 223.123 160.59 222.233L160.331 221.996Z" fill="#800C1E"/>
<path d="M150.026 30.7666C153.301 30.4861 156.592 30.4543 159.871 30.6729C174.425 31.7832 186.942 39.8234 191.139 54.3711C192.817 60.1883 192.496 65.5799 191.994 71.5498C186.95 71.9328 180.919 71.6466 175.808 71.7227C163.241 71.9094 150.188 71.3983 137.685 71.8223C137.53 81.3716 139.33 94.8319 146.377 101.912C151.304 106.862 158.148 108.682 164.921 108.628C175.51 108.544 181.157 106.092 188.501 98.7793C189.721 97.7877 189.367 97.7501 190.619 97.8008C192.137 99.2597 190.898 100.622 189.88 102.145C176.332 122.394 146.086 124.973 127.008 111.411C108.143 97.9995 105.438 66.5528 118.836 48.4531C126.644 37.9069 137.188 32.6373 150.026 30.7666ZM168.601 68.1133C169.573 55.5753 171.876 32.2268 152.698 34.0664C148.219 35.0863 145.396 36.404 142.774 40.5117C138.668 46.9492 137.46 60.5023 137.743 68.0723C143.151 68.3628 149.099 68.2464 154.558 68.2354C158.805 68.2367 164.481 68.3832 168.601 68.1133Z" fill="#800C1E"/>
<path d="M592.281 179.556C610.47 177.925 628.699 184.635 633.788 204.007C635.108 209.046 635.242 215.398 634.178 220.502C616.649 221.08 597.613 219.928 580.146 220.681C579.946 229.67 581.926 243.849 588.569 250.479C593.588 255.491 599.988 257.442 606.888 257.452C617.493 257.467 623.396 255.03 630.833 247.777C631.3 247.262 631.75 246.888 632.274 246.429C633.311 246.575 633.238 246.896 634.075 247.946C633.478 249.019 632.777 250.039 632.084 251.05C626.124 259.838 616.883 265.86 606.438 267.759C582.329 272.184 558.118 260.043 553.912 234.512C549.193 205.854 563.594 184.565 592.281 179.556ZM598.584 182.892C597.507 182.824 596.429 182.817 595.352 182.872C590.88 183.784 588.055 185.063 585.347 189.088C581.375 194.99 579.804 209.818 580.234 216.802C584.916 217.278 592.097 217.084 596.993 217.068C601.412 217.07 606.721 217.195 611.062 216.983C611.987 206.075 614.398 183.958 598.584 182.892Z" fill="#800C1E"/>
<path d="M57.4 143.557C71.5619 142.238 86.8097 145.318 98.9799 152.736C98.7522 160.054 99.7433 168.237 99.1727 175.523C93.5473 169.997 88.8687 157.444 82.8381 151.851C78.3045 147.816 71.3335 146.51 65.4629 146.928C29.7098 149.475 28.3291 191.3 29.8542 218.509C30.6299 232.345 34.3121 247.444 44.5461 257.181C54.5256 266.676 78.3782 268.373 87.6277 257.704C91.0434 252.728 97.3085 235.215 100.079 233.825L100.606 234.086C101.11 236.158 100.346 255.672 100.309 259.434C91.5733 264.372 80.693 267.287 70.8129 268.237C33.5037 271.824 2.7799 251.18 0.198944 212.203C-2.31302 174.268 19.0863 146.824 57.4 143.557Z" fill="#800C1E"/>
<path d="M531.934 141.849C532.988 141.674 534.746 141.362 535.359 142.361C536.91 144.88 536.013 150.289 535.916 153.135C535.769 158.727 535.673 164.32 535.623 169.914L535.729 250.275C535.769 254.491 535.146 261.94 539.608 264.06C541.139 264.787 543.203 265.348 544.384 266.508L544.377 267.02C542.683 267.815 509.043 267.501 504.477 267.503C503.257 267.545 501.893 267.754 501.092 266.782C501.536 265.496 501.656 265.195 503.1 264.976C507.983 264.236 509.877 259.092 509.86 254.495C509.783 235.942 509.81 217.354 509.807 198.783V172.77C509.81 168.44 510.854 157.022 507.872 153.555C506.995 152.538 502.366 151.518 500.846 149.922L500.936 149.449C503.664 148.001 527.745 142.725 531.934 141.849Z" fill="#800C1E"/>
<path d="M214.925 90.5449C224.646 85.8617 232.973 89.5507 237.533 99.0062C238.555 102.831 238.343 106.57 237.278 110.361C236.652 112.918 232.659 119.274 229.523 118.311C225.922 119.683 224.361 119.672 220.592 119.807C219.665 119.893 218.118 119.585 217.402 118.959C215.39 118.168 213.552 116.992 211.99 115.497C208.897 112.558 207.238 108.95 207.106 104.677C205.834 99.6879 211.005 93.1516 214.925 90.5449Z" fill="#9B725A"/>
<path d="M229.523 118.311C230.874 116.885 233.108 114.113 232.504 112.048C230.746 109.548 223.582 111.981 230.318 103.306L229.532 102.737C229.075 100.375 231.467 101.644 229.282 98.3279C230.636 98.3019 231.906 98.6038 233.049 97.9932C233.343 97.1735 233.242 97.0581 232.986 96.1733C232.319 96.0792 231.98 96.662 231.175 97.2632L230.304 96.3387C230.244 95.2631 230.32 95.0666 230.625 94.0256L231.257 93.9883C232.562 94.74 236.08 97.72 236.151 99.3365C236.172 99.7929 235.369 100.583 235.72 101.577L236.463 101.06C237.031 100.044 237.139 100.528 237.533 99.0062C238.555 102.831 238.343 106.57 237.278 110.36C236.652 112.918 232.659 119.274 229.523 118.311Z" fill="#E4C5AD"/>
<path d="M237.533 99.0061C238.555 102.831 238.343 106.57 237.278 110.36C235.646 108.069 238.079 103.088 236.463 101.06C237.031 100.044 237.139 100.528 237.533 99.0061Z" fill="#B29681"/>
<path d="M207.106 104.677C205.834 99.6879 211.005 93.1516 214.925 90.5449L214.552 91.5665C215.535 92.1137 216.654 91.3787 218.039 91.1885L218.74 91.8921L217.801 92.6098C217.715 93.4816 217.873 93.8309 218.106 94.6753C217.691 95.8908 217.356 95.7873 216.109 96.2478C217.404 97.2286 217.465 96.9631 217.96 98.2676C217.4 100.315 215.673 100.944 213.754 102.126C212.994 103.539 212.974 104.118 211.751 104.872C210.813 104.857 209.996 104.804 209.068 104.735C209.08 105.817 209.225 106.586 208.626 107.439C208.313 106.743 207.928 105.198 207.704 104.388L207.106 104.677Z" fill="#E4C5AD"/>
<path d="M207.106 104.677C205.834 99.6879 211.005 93.1516 214.925 90.5449L214.552 91.5665C215.535 92.1137 216.654 91.3787 218.039 91.1885L218.74 91.8921L217.801 92.6098C217.715 93.4816 217.873 93.8309 218.106 94.6753C217.691 95.8908 217.356 95.7873 216.109 96.2478L215.428 96.1437C214.131 97.4225 214.97 97.8906 213.703 98.6646C212.832 98.0451 213.124 98.3683 212.669 97.235C212.834 96.1407 213.317 95.6712 213.986 94.8115C211.047 91.9112 207.243 101.106 207.704 104.388L207.106 104.677Z" fill="#B29681"/>
<path d="M207.105 104.677L207.704 104.388C207.928 105.198 208.312 106.743 208.626 107.439C209.483 108.667 211.675 109.757 213.094 110.174L213.086 109.846C213.98 109.744 215.442 109.537 216.284 109.531C217.147 110.111 222.623 113.351 222.791 113.666C222.617 115.637 219.882 117.345 219.718 119.26L220.592 119.807C219.665 119.893 218.118 119.585 217.402 118.959C215.39 118.168 213.552 116.992 211.99 115.496C208.897 112.557 207.238 108.95 207.105 104.677Z" fill="#E4C5AD"/>
<path d="M207.105 104.677L207.704 104.388C207.928 105.198 208.312 106.743 208.626 107.439C209.483 108.667 211.675 109.757 213.094 110.174C213.386 111.259 213.39 111.779 213.337 112.88C214.679 116.013 217.241 115.036 217.402 118.959C215.39 118.168 213.552 116.992 211.99 115.496C208.897 112.557 207.238 108.95 207.105 104.677Z" fill="#9B725A"/>
<path d="M218.038 91.1884C220.177 91.0419 222.802 90.5431 224.456 91.9304C225.002 93.9095 222.573 95.3945 221.096 96.4418L220.475 96.3684C218.885 94.0166 220.777 93.8955 218.739 91.892L218.038 91.1884Z" fill="#E4C5AD"/>
<path d="M208.626 107.439C209.225 106.586 209.08 105.817 209.068 104.735C209.632 107.096 210.926 108.306 213.086 109.846L213.094 110.174C211.675 109.757 209.483 108.667 208.626 107.439Z" fill="#B29681"/>
</g>
<defs>
<clipPath id="clip0_8601_2">
<rect width="635" height="309" fill="white"/>
</clipPath>
</defs>
</svg>
